<svg width="737" height="737" viewBox="0 0 737 737" fill="none" xmlns="http://www.w3.org/2000/svg">
<g filter="url(#filter0_d_102_10)">
<mask id="path-1-inside-1_102_10" fill="white">
<path fill-rule="evenodd" clip-rule="evenodd" d="M707 268C707 387.294 610.294 484 491 484C371.706 484 275 387.294 275 268C275 148.706 371.706 52 491 52C610.294 52 707 148.706 707 268ZM491 438C584.888 438 661 361.888 661 268C661 174.112 584.888 98 491 98C397.112 98 321 174.112 321 268C321 361.888 397.112 438 491 438Z"/>
</mask>
<path fill-rule="evenodd" clip-rule="evenodd" d="M707 268C707 387.294 610.294 484 491 484C371.706 484 275 387.294 275 268C275 148.706 371.706 52 491 52C610.294 52 707 148.706 707 268ZM491 438C584.888 438 661 361.888 661 268C661 174.112 584.888 98 491 98C397.112 98 321 174.112 321 268C321 361.888 397.112 438 491 438Z" fill="#003584"/>
<path d="M491 485C610.846 485 708 387.846 708 268H706C706 386.741 609.741 483 491 483V485ZM274 268C274 387.846 371.154 485 491 485V483C372.259 483 276 386.741 276 268H274ZM491 51C371.154 51 274 148.154 274 268H276C276 149.259 372.259 53 491 53V51ZM708 268C708 148.154 610.846 51 491 51V53C609.741 53 706 149.259 706 268H708ZM660 268C660 361.336 584.336 437 491 437V439C585.441 439 662 362.441 662 268H660ZM491 99C584.336 99 660 174.664 660 268H662C662 173.559 585.441 97 491 97V99ZM322 268C322 174.664 397.664 99 491 99V97C396.559 97 320 173.559 320 268H322ZM491 437C397.664 437 322 361.336 322 268H320C320 362.441 396.559 439 491 439V437Z" fill="#8D8D8D" mask="url(#path-1-inside-1_102_10)"/>
</g>
<path d="M580 190.082L548 221.082C533.2 203.082 509.5 200.582 499.5 201.582C474.7 198.382 450.833 224.582 442 238.082H538V260.082H437V273.082H538V294.582H442C460 327.382 487.833 333.915 499.5 333.082C520.7 337.082 540.667 322.415 548 314.582L579 345.082C550.6 373.082 514.167 378.082 499.5 377.082C435.1 375.882 403.667 321.582 396 294.582H379V273.082H392.5V258.582H379V238.082H397.5C412.5 187.582 454 160.082 499.5 158.082C535.9 156.482 568.333 178.748 580 190.082Z" fill="#003584" stroke="#8D8D8D"/>
<g filter="url(#filter1_d_102_10)">
<mask id="path-4-inside-2_102_10" fill="white">
<path fill-rule="evenodd" clip-rule="evenodd" d="M462 468C462 587.294 365.294 684 246 684C126.706 684 30 587.294 30 468C30 348.706 126.706 252 246 252C365.294 252 462 348.706 462 468ZM246 638C339.888 638 416 561.888 416 468C416 374.112 339.888 298 246 298C152.112 298 76 374.112 76 468C76 561.888 152.112 638 246 638Z"/>
</mask>
<path fill-rule="evenodd" clip-rule="evenodd" d="M462 468C462 587.294 365.294 684 246 684C126.706 684 30 587.294 30 468C30 348.706 126.706 252 246 252C365.294 252 462 348.706 462 468ZM246 638C339.888 638 416 561.888 416 468C416 374.112 339.888 298 246 298C152.112 298 76 374.112 76 468C76 561.888 152.112 638 246 638Z" fill="#003584"/>
<path d="M246 685C365.846 685 463 587.846 463 468H461C461 586.741 364.741 683 246 683V685ZM29 468C29 587.846 126.154 685 246 685V683C127.259 683 31 586.741 31 468H29ZM246 251C126.154 251 29 348.154 29 468H31C31 349.259 127.259 253 246 253V251ZM463 468C463 348.154 365.846 251 246 251V253C364.741 253 461 349.259 461 468H463ZM415 468C415 561.336 339.336 637 246 637V639C340.441 639 417 562.441 417 468H415ZM246 299C339.336 299 415 374.664 415 468H417C417 373.559 340.441 297 246 297V299ZM77 468C77 374.664 152.664 299 246 299V297C151.559 297 75 373.559 75 468H77ZM246 637C152.664 637 77 561.336 77 468H75C75 562.441 151.559 639 246 639V637Z" fill="#8D8D8D" mask="url(#path-4-inside-2_102_10)"/>
</g>
<path d="M230.009 339V362C190.009 372.8 180.675 407.833 181.009 424C185.409 477.6 226.175 490 246.009 489.5C263.609 490.7 268.009 504.667 268.009 511.5C267.509 518.833 262.409 533.5 246.009 533.5C229.609 533.5 224.509 518.833 224.009 511.5H181.009C182.609 552.7 214.009 570.667 229.509 574.5V597H262.509V574.5C304.509 561.3 312.342 526.333 311.009 510.5C305.509 458.5 268.009 448 246.009 446.5C228.409 445.3 224.009 431 224.009 424C224.675 417 230.009 402.9 246.009 402.5C262.009 402.1 267.342 416.667 268.009 424H311.009C308.209 381.2 277.175 364.833 262.009 362V339H230.009Z" fill="#003584" stroke="#8D8D8D"/>
<defs>
<filter id="filter0_d_102_10" x="271" y="52" width="440" height="440" filterUnits="userSpaceOnUse" color-interpolation-filters="sRGB">
<feFlood flood-opacity="0" result="BackgroundImageFix"/>
<feColorMatrix in="SourceAlpha" type="matrix" values="0 0 0 0 0 0 0 0 0 0 0 0 0 0 0 0 0 0 127 0" result="hardAlpha"/>
<feOffset dy="4"/>
<feGaussianBlur stdDeviation="2"/>
<feComposite in2="hardAlpha" operator="out"/>
<feColorMatrix type="matrix" values="0 0 0 0 0 0 0 0 0 0 0 0 0 0 0 0 0 0 0.25 0"/>
<feBlend mode="normal" in2="BackgroundImageFix" result="effect1_dropShadow_102_10"/>
<feBlend mode="normal" in="SourceGraphic" in2="effect1_dropShadow_102_10" result="shape"/>
</filter>
<filter id="filter1_d_102_10" x="26" y="252" width="440" height="440" filterUnits="userSpaceOnUse" color-interpolation-filters="sRGB">
<feFlood flood-opacity="0" result="BackgroundImageFix"/>
<feColorMatrix in="SourceAlpha" type="matrix" values="0 0 0 0 0 0 0 0 0 0 0 0 0 0 0 0 0 0 127 0" result="hardAlpha"/>
<feOffset dy="4"/>
<feGaussianBlur stdDeviation="2"/>
<feComposite in2="hardAlpha" operator="out"/>
<feColorMatrix type="matrix" values="0 0 0 0 0 0 0 0 0 0 0 0 0 0 0 0 0 0 0.25 0"/>
<feBlend mode="normal" in2="BackgroundImageFix" result="effect1_dropShadow_102_10"/>
<feBlend mode="normal" in="SourceGraphic" in2="effect1_dropShadow_102_10" result="shape"/>
</filter>
</defs>
</svg>
